# xmcd
#
# Track frame offsets: 
#        182
#        19245
#        31085
#        44595
#        60035
#        71757
#        84757
#        96252
#        110402
#        123745
#        138517
#
# Disc length: 2034 seconds
#
# Revision: 2
# Processed by: cddbd v1.5.2PL0 Copyright (c) Steve Scherf et al.
# Submitted via: ExactAudioCopy v0.95b4
#
DISCID=8e07f00b
DTITLE=Hank Williams, Jr. - One Night Stands
DYEAR=1900
DGENRE=Country
TTITLE0=One Night Stands
TTITLE1=Mobile Boogie
TTITLE2=Angels Get Lonesome Sometimes
TTITLE3=I'm Not Responsible
TTITLE4=Building Memories
TTITLE5=Honey Won't You Call Me
TTITLE6=She's Still The Star (On The Stage Of My Mind)
TTITLE7=All By Myself
TTITLE8=Cherokee
TTITLE9=Daddy (I Need You Tonight)
TTITLE10=It's Different With You
EXTD=
EXTT0=
EXTT1=
EXTT2=
EXTT3=
EXTT4=
EXTT5=
EXTT6=
EXTT7=
EXTT8=
EXTT9=
EXTT10=
PLAYORDER=
